<?xml version="1.0" standalone="no"?>
<!DOCTYPE svg PUBLIC "-//W3C//DTD SVG 20010904//EN"
 "http://www.w3.org/TR/2001/REC-SVG-20010904/DTD/svg10.dtd">
<svg version="1.0" xmlns="http://www.w3.org/2000/svg"
 width="700.000000pt" height="700.000000pt" viewBox="0 0 700.000000 700.000000"
 preserveAspectRatio="xMidYMid meet">
<metadata>
Created by potrace 1.14, written by Peter Selinger 2001-2017
</metadata>
<g transform="translate(0.000000,700.000000) scale(0.100000,-0.100000)"
fill="#000000" stroke="none">
<path d="M2165 6490 l-550 -5 -57 -29 c-31 -16 -73 -42 -94 -59 -46 -38 -107
-132 -129 -198 -63 -188 30 -407 209 -494 116 -56 8 -53 1986 -52 l1825 2 72
26 c117 43 191 108 246 214 44 87 40 248 -8 360 -47 109 -155 203 -258 225
-57 12 -2275 19 -3242 10z"/>
<path d="M3645 5075 c-63 -18 -96 -39 -156 -96 -76 -73 -104 -113 -135 -195
-32 -85 -40 -211 -19 -303 37 -158 166 -311 262 -311 21 0 87 -11 146 -25 263
-59 470 -167 648 -337 127 -120 263 -326 318 -478 27 -74 60 -192 66 -233 4
-23 8 -44 10 -47 15 -24 22 -256 12 -370 -24 -263 -133 -537 -297 -744 -8 -10
-54 -59 -102 -107 -138 -138 -335 -261 -548 -339 -47 -18 -89 -33 -95 -34 -39
-10 -65 -19 -65 -22 0 -3 11 -27 25 -54 47 -92 76 -216 78 -325 2 -176 -22
-291 -93 -439 -22 -46 -40 -86 -40 -89 0 -3 10 -4 23 -2 12 2 51 6 85 10 384
37 808 231 1140 522 359 314 602 703 722 1158 26 97 33 133 45 210 2 11 6 33
9 50 28 148 28 616 1 715 -3 8 -11 52 -19 98 -16 93 -12 132 48 477 35 194 39
278 20 352 -40 153 -149 251 -319 286 -96 20 -177 32 -189 29 -17 -5 -156 28
-187 43 -17 9 -63 44 -102 79 -166 144 -278 221 -455 310 -185 94 -312 137
-590 202 -92 21 -195 25 -247 9z"/>
<path d="M3219 5076 c-2 -2 -32 -7 -67 -10 -87 -8 -229 -40 -342 -77 -378
-123 -709 -343 -985 -655 -214 -241 -370 -508 -469 -805 -56 -165 -83 -290
-102 -459 -2 -25 -7 -63 -11 -85 -3 -22 -7 -49 -9 -60 -5 -38 -4 -250 0 -285
46 -333 47 -399 10 -610 -9 -47 -17 -96 -19 -110 -12 -76 -15 -94 -19 -109
-11 -38 -20 -154 -20 -256 -1 -99 2 -116 26 -166 56 -116 193 -207 338 -224
25 -3 54 -8 66 -10 24 -5 58 -10 164 -24 124 -17 168 -36 272 -120 339 -275
701 -434 1109 -486 89 -12 186 30 275 119 65 65 121 167 143 260 36 148 -23
351 -131 452 -69 65 -119 88 -213 99 -274 33 -564 197 -763 431 -130 153 -245
379 -296 579 -69 274 -54 521 51 810 41 113 134 292 162 315 4 3 15 18 25 34
28 44 154 173 231 236 138 113 326 217 495 274 95 33 98 34 84 44 -12 9 -58
112 -74 167 -58 205 -39 440 54 640 20 43 36 82 36 86 0 9 -13 12 -21 5z"/>
</g>
</svg>
