<svg xmlns="http://www.w3.org/2000/svg" id="svg55" width="745pt" height="383pt" viewBox="0 0 745 383"><g id="g47"><g id="#6875f5ff" fill="#6875f5"><path id="path17" d="M322.626 14.4c27.44-11.14 58.63-12.7 87.04-4.38 13.51 3.9 26.34 10.05 37.97 17.95.98.82 2.74 1.48 2.32 3.13-.61 38.27-10.39 76.36-28.44 110.13-25.74 48.54-68.4 87.82-118.9 109.48-33.48-20.6-57.1-56.56-61.97-95.64-3.69-27.86 1.65-56.86 15.28-81.45 14.58-26.6 38.55-47.91 66.7-59.22z"/><path id="path19" d="M462.006 150.67c13.73-20.81 24.32-43.62 31.82-67.38 15.48 34.22 15.54 75.03-.09 109.21-13.63 30.41-39.17 55.23-69.96 67.98-33.42 14.08-72.67 13.59-105.67-1.48 58.6-17.99 110.38-57.01 143.9-108.33z"/></g><g id="#000000ff"><path id="path22" d="M289.186 311.22h11.62c-.01 21.91 0 43.83-.01 65.74-3.87-.01-7.74-.01-11.6 0-.01-21.91 0-43.83-.01-65.74z"/><path id="path24" d="M5.496 313.92h12.42v51.15h24.03c0 3.96 0 7.92.01 11.88-12.15.02-24.31 0-36.46.01z"/><path id="path26" d="M365.766 359.22c.05-15.1 0-30.2.03-45.3h6.28c-.02 15.45.08 30.91-.05 46.37-.06 6.5-3.91 12.84-9.91 15.49-10.13 4.66-24.85 2.39-29.97-8.51 1.76-1.04 3.52-2.09 5.28-3.13 3.54 8.27 14.55 9.33 21.94 6.17 4.28-1.86 6.59-6.56 6.4-11.09z"/><path id="path28" d="M510.546 321.13c1.98-.6 3.95-1.21 5.94-1.81 0 4.2 0 8.41.01 12.61 4.31-.01 8.63 0 12.95 0-.01 1.92-.01 3.84 0 5.77h-12.95c0 9.18-.05 18.37.01 27.56-.01 2.26.48 5.16 2.93 6.02 3.22 1.05 6.69.5 10.02.47-.02 1.75-.02 3.51-.03 5.27-4.88.47-10.39 1.13-14.68-1.79-3.21-2.2-4.18-6.32-4.18-9.98-.06-9.18 0-18.37-.02-27.55-3.16 0-6.31-.01-9.45 0-.01-1.93-.01-3.85 0-5.77h9.45c-.01-3.6 0-7.2 0-10.8z"/><path id="path30" d="M440.416 321.13c1.97-.6 3.94-1.21 5.93-1.81 0 4.2 0 8.41.01 12.61 4.31-.01 8.63 0 12.96 0-.01 1.92-.01 3.84 0 5.76-4.33.01-8.66-.01-12.98.03.05 9.17-.03 18.34.03 27.51-.01 2.26.47 5.17 2.92 6.04 3.23 1.07 6.7.51 10.03.48-.02 1.75-.01 3.5-.01 5.26-4.7.47-9.9 1.08-14.15-1.42-3.58-2.06-4.76-6.47-4.72-10.34-.07-9.19.01-18.37-.03-27.56-3.15.01-6.3.01-9.44.01-.01-1.93-.01-3.85 0-5.77h9.44c0-3.6.01-7.2.01-10.8z"/><path id="path32" d="M56.136 333.86c7.89-5.1 19.5-4.11 25.68 3.26-.03-1.75-.03-3.47-.03-5.2 3.87.01 7.74.01 11.6.01 0 15.01.01 30.02 0 45.03-3.87-.01-7.74-.01-11.61 0 0-1.74.01-3.47.05-5.19-3.6 4.08-8.87 6.53-14.34 6.43-9.06.3-17.44-6.07-20.52-14.44-4.18-10.47-.63-23.87 9.17-29.9m7.85 8.98c-5.1 2.12-7.78 8.01-7.03 13.33.46 7.4 8.42 12.62 15.45 10.6 7.51-1.43 11.28-10.43 8.51-17.2-2.24-6.7-10.72-9.62-16.93-6.73z"/><path id="path34" d="M115.456 339.58c2.24-5.5 7.93-8.52 13.68-8.71.14 4.34.03 8.68.09 13.02-3.15-.01-6.47.21-9.14 2.05-3.1 1.94-4.56 5.68-4.53 9.22-.09 7.27 0 14.53-.03 21.8h-11.61c.01-15.01-.01-30.02.01-45.03h11.6c.01 2.55.01 5.1-.07 7.65z"/><path id="path36" d="M143.686 333.39c7.83-4.57 18.94-3.4 24.87 3.76-.02-1.75-.03-3.49-.04-5.22h11.62c.01 15.01 0 30.02 0 45.03-3.87-.01-7.74-.01-11.61 0 0-1.74 0-3.48.03-5.21-4.38 5.2-11.56 7.37-18.16 6.16-8.55-1.38-15.46-8.5-17.53-16.78-2.86-10.26 1.32-22.46 10.82-27.74m8.06 9.06c-7.85 2.4-10.43 12.97-5.98 19.44 3.94 6.09 13.37 6.94 18.68 2.19 4.79-4.29 5.36-12.2 1.71-17.37-3.14-4.46-9.37-6.02-14.41-4.26z"/><path id="path38" d="M243.046 335.81c7.99-6.41 20.38-6.98 28.68-.83 7.49 5.4 10.5 15.35 8.98 24.24-11.37.03-22.75-.06-34.12.05 2.79 9.63 16.84 11.11 23.01 3.99 3.1 1.77 6.19 3.56 9.28 5.36-8.84 12.75-30.13 12.73-39.5.63-7.56-9.82-6.15-25.63 3.67-33.44m3.36 14.36c7.72.08 15.45.07 23.18 0-1.25-5.45-6.39-9.68-12.1-9.02-5.35-.06-9.79 3.99-11.08 9.02z"/><path id="path40" d="M391.286 334.96c8.31-5.72 20.64-5.63 28.23 1.33 5.88 5.23 8.38 13.41 7.74 21.12-13.25.05-26.5-.06-39.75.06.78 3.34 1.95 6.74 4.4 9.26 7.34 7.99 22.4 7.47 28.25-2.07 1.72 1.03 3.44 2.06 5.17 3.1-7.89 12.47-27.62 13.69-37.57 3.14-9.49-9.92-8-28.19 3.53-35.94m4.83 3.86c-4.76 2.57-7.69 7.58-8.59 12.81 11.26.04 22.52.04 33.79 0-.7-3.57-1.9-7.16-4.45-9.85-5.07-5.76-14.21-6.62-20.75-2.96z"/><path id="path42" d="M472.116 332.9c8.26-4.43 20.06-1.59 24.32 7.08-1.63.95-3.26 1.91-4.89 2.86-3.07-6.35-11.98-8.01-17.65-4.3-3.25 2.05-3.78 7.43-.48 9.7 6.68 4.63 16.47 3.48 21.93 10.13 3.88 5.13 2.2 13.29-3.26 16.63-9.12 5.84-23.97 3.3-28.32-7.37 1.65-.94 3.3-1.88 4.94-2.84 3.07 7.27 12.7 9.26 19.35 6 3.9-1.78 4.77-7.94 1.05-10.36-5.63-3.71-12.89-3.55-18.58-7.16-3.17-1.85-5.33-5.35-5.29-9.06-.3-4.76 2.73-9.2 6.88-11.31z"/><path id="path44" d="M539.346 331.93c1.97 0 3.95-.01 5.94 0 0 2.44 0 4.88-.04 7.33 2.68-5.31 8.41-8.2 14.24-8.14 0 1.92.01 3.84.02 5.77-3.07.34-6.32.69-8.85 2.63-3.78 2.6-5.32 7.36-5.34 11.78-.08 8.55 0 17.1-.03 25.66-1.98-.01-3.97-.01-5.94 0z"/><path id="path46" d="M572.076 334.9c8.15-5.54 20.1-5.56 27.69 1 6.18 5.2 8.86 13.61 8.18 21.51-13.23.02-26.47-.01-39.7.02.73 3.71 2.21 7.39 5.05 10 7.57 7.28 21.86 6.44 27.59-2.76 1.7 1.02 3.41 2.04 5.12 3.06-7.92 12.66-28.03 13.73-37.86 2.84-9.18-10.02-7.54-28.05 3.93-35.67m.92 6.88c-2.66 2.65-4.03 6.24-4.76 9.86 11.26.02 22.51.03 33.77 0-.72-3.98-2.25-7.95-5.29-10.73-6.41-6.14-17.7-5.55-23.72.87z"/><path id="path48" d="M616.306 345.98c3.04-8.43 11.32-14.65 20.29-15.07 7.74-.66 15.42 3.28 19.63 9.77-.06-2.92-.06-5.84-.04-8.75 1.96 0 3.94-.01 5.93 0 .01 15.01 0 30.02.01 45.03-1.99-.01-3.97-.01-5.94 0-.01-2.92-.03-5.84.04-8.76-2.63 3.75-6.16 6.97-10.53 8.49-8.23 3.03-18.05.76-24.13-5.54-6.48-6.42-8.48-16.7-5.26-25.17m15.62-8.16c-9.19 3.28-13.71 14.76-9.84 23.58 3.2 8.46 13.45 12.93 21.92 10.02 9.43-2.76 14.6-14.06 11.13-23.12-2.98-9.27-14.3-14.18-23.21-10.48z"/><path id="path50" d="M680.576 338.42c4.07-6.56 12.73-9.35 19.89-6.48 3.37 1.19 5.89 3.92 7.63 6.98 4.74-8.09 16.25-10.46 24.03-5.46 4.93 3.09 7.3 9.05 7.34 14.7.08 9.6.01 19.2.02 28.8-1.98-.01-3.96-.01-5.93 0-.09-9.92.17-19.85-.12-29.77-.03-5.76-5-10.99-10.92-10.55-6.59-.5-11.87 5.29-12.19 11.61-.59 9.55-.11 19.14-.26 28.71-1.99-.01-3.97-.01-5.95-.01.01-8.93 0-17.86.01-26.8.07-4.12-.6-8.84-4.09-11.51-5.19-3.73-13.39-2.11-16.8 3.3-2.01 2.99-2.59 6.7-2.59 10.24-.03 8.26 0 16.52-.01 24.78-1.99-.01-3.97-.01-5.94 0v-45.03h5.95c-.02 2.16-.02 4.32-.07 6.49z"/><path id="path52" d="M185.636 331.93h12.77c3.63 10.5 7.25 21.01 10.89 31.51 3.67-10.5 7.31-21.01 10.98-31.51 4.25 0 8.51-.01 12.77 0-5.69 15.01-11.4 30.01-17.08 45.02-4.42.01-8.83.01-13.24.01-5.69-15.02-11.41-30.02-17.09-45.03z"/></g></g></svg>