<svg xmlns="http://www.w3.org/2000/svg" id="Layer_1" x="0px" y="0px" viewBox="0 0 934 345"><g id="g20" fill="#EF3B2D"><g id="g16"><path id="polygon2" d="M389.647 121.376H373.18v100.23h47.395v-14.748h-30.928z"/><path id="path4" d="M478.706 163.902c-2.1-3.34-5.083-5.965-8.95-7.875-3.864-1.91-7.755-2.864-11.668-2.864-5.062 0-9.69.93-13.89 2.792-4.2 1.86-7.804 4.417-10.81 7.66-3.008 3.247-5.348 6.994-7.017 11.24-1.67 4.25-2.505 8.713-2.505 13.39 0 4.773.834 9.26 2.506 13.458 1.67 4.202 4.01 7.925 7.017 11.17 3.007 3.245 6.61 5.798 10.81 7.66 4.2 1.86 8.83 2.79 13.89 2.79 3.914 0 7.805-.954 11.67-2.862 3.866-1.907 6.85-4.532 8.95-7.874v9.02h15.606v-66.724h-15.607v9.02zm-1.43 32.503c-.956 2.578-2.292 4.82-4.01 6.73-1.72 1.91-3.795 3.437-6.23 4.582-2.434 1.146-5.132 1.718-8.09 1.718-2.96 0-5.633-.572-8.02-1.718-2.386-1.146-4.437-2.672-6.155-4.582-1.718-1.91-3.03-4.152-3.937-6.73-.91-2.577-1.36-5.298-1.36-8.16 0-2.865.45-5.586 1.36-8.163.905-2.577 2.22-4.82 3.938-6.73 1.72-1.907 3.77-3.436 6.157-4.58 2.386-1.147 5.06-1.72 8.02-1.72 2.957 0 5.655.573 8.09 1.72 2.434 1.145 4.51 2.673 6.23 4.58 1.717 1.91 3.053 4.153 4.008 6.73.953 2.577 1.432 5.298 1.432 8.162 0 2.863-.48 5.584-1.432 8.16z"/><path id="path6" d="M605.57 163.902c-2.102-3.34-5.084-5.965-8.95-7.875-3.865-1.91-7.756-2.864-11.67-2.864-5.06 0-9.69.93-13.89 2.792-4.2 1.86-7.803 4.417-10.81 7.66-3.007 3.247-5.347 6.994-7.016 11.24-1.672 4.25-2.506 8.713-2.506 13.39 0 4.773.834 9.26 2.506 13.458 1.67 4.202 4.01 7.925 7.016 11.17 3.007 3.245 6.61 5.798 10.81 7.66 4.2 1.86 8.83 2.79 13.89 2.79 3.914 0 7.805-.954 11.67-2.862 3.866-1.907 6.85-4.532 8.95-7.874v9.02h15.606v-66.724H605.57v9.02zm-1.433 32.503c-.955 2.578-2.29 4.82-4.01 6.73-1.718 1.91-3.794 3.437-6.228 4.582-2.436 1.146-5.134 1.718-8.092 1.718-2.96 0-5.633-.572-8.02-1.718-2.386-1.146-4.437-2.672-6.155-4.582-1.72-1.91-3.032-4.152-3.938-6.73-.91-2.577-1.36-5.298-1.36-8.16 0-2.865.45-5.586 1.36-8.163.905-2.577 2.22-4.82 3.938-6.73 1.718-1.907 3.77-3.436 6.156-4.58 2.385-1.147 5.058-1.72 8.018-1.72 2.958 0 5.656.573 8.09 1.72 2.435 1.145 4.51 2.673 6.23 4.58 1.718 1.91 3.054 4.153 4.01 6.73.952 2.577 1.43 5.298 1.43 8.162 0 2.863-.478 5.584-1.43 8.16z"/><path id="rect8" d="M776.78 121.376h15.607v100.23H776.78z"/><path id="polygon10" d="M506.628 221.606h15.607v-51.368h26.776v-15.356H506.63z"/><path id="polygon12" d="M683.748 154.882l-19.616 51.096-19.616-51.096h-15.808l25.617 66.724h19.614l25.616-66.724z"/><path id="path14" d="M733.595 153.166c-19.112 0-34.24 15.706-34.24 35.08 0 21.415 14.642 35.078 36.24 35.078 12.088 0 19.806-4.622 29.234-14.688l-10.545-8.158c-.006.008-7.958 10.45-19.832 10.45-13.802 0-19.612-11.128-19.612-16.885h51.778c2.72-22.043-11.772-40.877-33.023-40.877zm-18.713 29.28c.12-1.284 1.917-16.884 18.59-16.884 16.67 0 18.696 15.598 18.812 16.884h-37.402z"/></g><path id="path18" d="M325.683 120.592c-.024-.088-.073-.165-.104-.25-.06-.157-.11-.316-.192-.46-.056-.097-.137-.176-.203-.265-.087-.117-.16-.242-.265-.345-.085-.086-.194-.148-.29-.223-.11-.086-.206-.183-.327-.253h-.002v-.003L288.65 98.27c-.916-.528-2.046-.528-2.963 0l-35.647 20.522-.002.002h-.002c-.12.07-.22.168-.327.253-.097.075-.206.138-.29.223-.104.103-.18.228-.266.345-.066.09-.147.17-.203.265-.082.144-.132.304-.19.46-.03.085-.08.162-.104.25-.067.25-.103.51-.103.776v38.98l-29.706 17.102v-76.255c0-.265-.036-.526-.103-.776-.024-.088-.073-.165-.104-.25-.058-.157-.108-.316-.19-.46-.057-.097-.138-.176-.204-.265-.087-.117-.16-.242-.265-.345-.084-.086-.193-.148-.29-.223-.108-.085-.205-.182-.326-.252h-.002s0-.002-.002-.003l-35.647-20.524c-.917-.528-2.047-.528-2.964 0L143.1 98.62h-.002s-.002 0-.002.002c-.12.07-.22.167-.327.252-.095.075-.204.138-.29.223-.102.103-.177.228-.264.345-.066.09-.147.17-.203.265-.083.144-.133.304-.19.46-.032.085-.08.162-.105.25-.067.25-.103.51-.103.776v122.09c0 1.063.568 2.044 1.49 2.575l71.292 41.045c.156.09.324.143.49.202.078.028.15.074.23.095.25.066.506.1.762.1.255 0 .51-.033.76-.1.07-.018.133-.06.2-.083.177-.06.355-.12.52-.214l71.293-41.045c.92-.53 1.49-1.512 1.49-2.575v-38.98L324.3 164.64c.92-.53 1.49-1.512 1.49-2.575v-40.697c-.004-.264-.04-.525-.107-.774zM215.87 219.867l-29.648-16.78 31.136-17.925 34.165-19.67 29.674 17.084-21.772 12.428-43.555 24.863zm68.33-76.26v33.842l-12.476-7.183-17.23-9.92v-33.84l12.474 7.18 17.23 9.92zm2.97-39.334l29.692 17.095-29.693 17.095-29.694-17.095 29.693-17.095zm-91.495 86.516l-12.475 7.18v-74.537l17.23-9.92 12.476-7.182v74.538l-17.23 9.92zM180.23 84.097l29.692 17.095-29.693 17.095-29.694-17.095 29.693-17.095zm-32.677 22.234l12.475 7.182 17.23 9.92v79.676l.002.005v.006c0 .115.03.222.044.334.017.146.02.294.06.434v.007c.033.117.095.222.14.334.052.123.09.254.157.37l.005.01c.06.104.15.19.222.287.08.105.15.22.244.314.004.004.006.008.01.01.083.084.19.143.283.216.106.083.202.178.32.247l.013.005.01.008 34.14 19.32v34.176l-65.352-37.625V106.332zM284.2 221.567l-65.353 37.625V225.01l48.4-27.628 16.952-9.677v33.862zm35.645-61.22L290.14 177.45v-33.842l17.23-9.92 12.475-7.182v33.84z"/></g></svg>