<svg xmlns="http://www.w3.org/2000/svg" id="Layer_1" width="687" height="225" x="0px" y="0px" viewBox="0 0 687 225"><g id="g20" fill="#ef3b2d"><g id="g16"><path id="polygon2" d="M266.147 61.377H249.68v100.23h47.395V146.86h-30.928z"/><path id="path4" d="M355.206 103.902c-2.1-3.34-5.083-5.965-8.95-7.875-3.864-1.91-7.755-2.864-11.668-2.864-5.062 0-9.69.93-13.89 2.792-4.2 1.86-7.804 4.417-10.81 7.66-3.008 3.247-5.348 6.994-7.017 11.24-1.67 4.25-2.504 8.713-2.504 13.39 0 4.773.834 9.26 2.506 13.458 1.67 4.202 4.01 7.925 7.017 11.17 3.006 3.245 6.61 5.798 10.81 7.66 4.2 1.86 8.83 2.79 13.89 2.79 3.913 0 7.804-.954 11.67-2.862 3.865-1.906 6.85-4.53 8.95-7.873v9.02h15.605V94.883h-15.607v9.02zm-1.43 32.503c-.956 2.578-2.292 4.82-4.01 6.73-1.72 1.91-3.795 3.437-6.23 4.582-2.434 1.146-5.132 1.718-8.09 1.718-2.96 0-5.633-.572-8.02-1.718-2.386-1.146-4.437-2.672-6.155-4.582-1.717-1.91-3.03-4.152-3.936-6.73-.91-2.577-1.36-5.298-1.36-8.16 0-2.865.45-5.586 1.36-8.163.905-2.576 2.22-4.82 3.938-6.73 1.72-1.907 3.77-3.436 6.157-4.58 2.385-1.147 5.06-1.72 8.02-1.72 2.956 0 5.654.573 8.09 1.72 2.432 1.145 4.508 2.673 6.228 4.58 1.718 1.91 3.054 4.153 4.01 6.73.95 2.578 1.43 5.3 1.43 8.163 0 2.862-.48 5.583-1.432 8.16z"/><path id="path6" d="M482.07 103.902c-2.102-3.34-5.084-5.965-8.95-7.875-3.865-1.91-7.756-2.864-11.67-2.864-5.06 0-9.69.93-13.89 2.792-4.2 1.86-7.803 4.417-10.81 7.66-3.007 3.247-5.347 6.994-7.016 11.24-1.672 4.25-2.506 8.713-2.506 13.39 0 4.773.834 9.26 2.506 13.458 1.67 4.202 4.01 7.925 7.016 11.17 3.007 3.245 6.61 5.798 10.81 7.66 4.2 1.86 8.83 2.79 13.89 2.79 3.914 0 7.805-.954 11.67-2.862 3.866-1.906 6.85-4.53 8.95-7.873v9.02h15.606V94.883H482.07v9.02zm-1.433 32.503c-.955 2.578-2.29 4.82-4.01 6.73-1.718 1.91-3.794 3.437-6.228 4.582-2.437 1.146-5.135 1.718-8.093 1.718-2.96 0-5.633-.572-8.02-1.718-2.386-1.146-4.437-2.672-6.155-4.582-1.72-1.91-3.032-4.152-3.938-6.73-.91-2.577-1.36-5.298-1.36-8.16 0-2.865.45-5.586 1.36-8.163.905-2.576 2.22-4.82 3.938-6.73 1.718-1.907 3.77-3.436 6.156-4.58 2.385-1.147 5.058-1.72 8.018-1.72 2.958 0 5.656.573 8.09 1.72 2.435 1.145 4.51 2.673 6.23 4.58 1.718 1.91 3.054 4.153 4.01 6.73.952 2.578 1.43 5.3 1.43 8.163 0 2.862-.478 5.583-1.43 8.16z"/><path id="rect8" d="M653.28 61.377h15.607v100.23H653.28z"/><path id="polygon10" d="M383.127 161.606h15.607v-51.368h26.777V94.882h-42.38z"/><path id="polygon12" d="M560.248 94.883l-19.616 51.096-19.616-51.097h-15.808l25.617 66.724h19.614l25.615-66.725z"/><path id="path14" d="M610.095 93.166c-19.112 0-34.24 15.707-34.24 35.08 0 21.415 14.642 35.078 36.24 35.078 12.088 0 19.806-4.622 29.234-14.688l-10.546-8.157c-.006.007-7.958 10.45-19.832 10.45-13.802 0-19.612-11.13-19.612-16.886h51.778c2.72-22.043-11.773-40.877-33.024-40.877zm-18.713 29.28c.12-1.283 1.917-16.883 18.59-16.883 16.67 0 18.696 15.597 18.812 16.883z"/></g><path id="path18" d="M202.183 60.593c-.024-.09-.073-.166-.104-.25-.062-.158-.112-.317-.194-.46-.056-.098-.137-.177-.203-.266-.087-.116-.16-.24-.265-.344-.085-.087-.194-.15-.29-.224-.11-.086-.205-.183-.326-.253h-.002v-.003L165.15 38.27c-.917-.528-2.047-.528-2.964 0L126.54 58.792l-.003.002h-.002c-.12.07-.22.168-.327.253-.097.075-.206.138-.29.223-.104.103-.18.228-.266.345-.066.09-.147.17-.203.265-.083.144-.133.304-.19.46-.03.085-.08.162-.105.25-.067.25-.103.51-.103.776v38.98l-29.706 17.102V41.194c0-.266-.036-.527-.103-.777-.024-.088-.073-.165-.104-.25-.06-.157-.11-.316-.19-.46-.058-.097-.14-.176-.205-.265-.087-.117-.16-.242-.265-.345-.084-.086-.193-.148-.29-.223-.108-.085-.205-.182-.326-.252h-.002v-.003L58.212 18.094c-.917-.528-2.047-.528-2.964 0L19.6 38.621h-.002s-.002 0-.002.003c-.12.07-.22.167-.327.252-.096.075-.205.138-.29.223-.103.103-.178.228-.265.345-.066.09-.147.17-.203.265-.083.144-.133.304-.19.46-.032.085-.08.162-.105.25-.067.25-.103.51-.103.776v122.09c0 1.063.568 2.044 1.49 2.575L90.896 206.9c.156.09.324.144.49.203.078.028.15.074.23.095.25.067.506.1.762.1.255 0 .51-.033.76-.1.07-.017.133-.06.2-.082.177-.06.355-.12.52-.214l71.293-41.045c.92-.532 1.49-1.514 1.49-2.577v-38.98l34.16-19.662c.92-.53 1.49-1.51 1.49-2.574V61.37c-.004-.265-.04-.526-.107-.775zM92.37 159.868l-29.65-16.78 31.138-17.925 34.164-19.67 29.675 17.084-21.772 12.428zm68.33-76.26v33.84l-12.476-7.18-17.23-9.92v-33.84l12.474 7.18 17.23 9.918zm2.97-39.335l29.692 17.095-29.693 17.095-29.695-17.094 29.693-17.096zM72.174 130.79l-12.476 7.18V63.433l17.23-9.92 12.475-7.182v74.538l-17.23 9.92zM56.728 24.097l29.69 17.095L56.73 58.287 27.034 41.192l29.693-17.095zM24.05 46.33l12.475 7.183 17.23 9.92v79.676l.002.004v.006c0 .115.03.222.043.334.017.146.02.294.06.434v.007c.033.117.095.222.14.334.052.122.09.253.157.37l.005.01c.06.103.15.19.222.286.08.105.15.22.244.314l.01.01c.084.084.19.143.284.216.106.083.202.178.32.247l.013.005.01.008 34.14 19.32v34.176l-65.35-37.625V46.332zM160.7 161.568l-65.353 37.625V165.01l48.4-27.628 16.95-9.677v33.862zm35.644-61.22L166.64 117.45V83.608l17.23-9.92 12.474-7.182v33.84z"/></g></svg>