<svg xmlns="http://www.w3.org/2000/svg" id="svg35" width="234px" height="54px" viewBox="0 0 234 54" xmlns:xlink="http://www.w3.org/1999/xlink"><defs id="defs4"><path id="path-100" d="M6.214 3.968v9.562c0 1.716-1.39 3.107-3.107 3.107C1.39 16.637 0 15.247 0 13.53V1.986C.58.922 1.242 0 2.437 0 4.38 0 5.06 2.442 6.214 3.968zm11.738.498v15.122c0 1.906-1.545 3.452-3.452 3.452s-3.452-1.546-3.452-3.452V2.473C11.698 1.22 12.368 0 13.742 0c2.174 0 2.766 3.056 4.21 4.466zM29 4.188v10.978c0 1.716-1.39 3.108-3.107 3.108-1.716 0-3.107-1.392-3.107-3.108V1.673C23.326.747 23.97 0 25.046 0c2.04 0 2.688 2.692 3.954 4.188z"/><path id="path-300" d="M6.214 6.898c-.55-.674-1.203-1.175-2.147-1.175-2.24 0-2.652 2.824-4.067 4.097V-2.36C0-4.078 1.39-5.47 3.107-5.47c1.716 0 3.107 1.39 3.107 3.107v9.258zm11.738.218c-.587-.782-1.275-1.393-2.317-1.393-2.493 0-2.722 3.495-4.587 4.46V4.8c0-1.907 1.545-3.453 3.452-3.453s3.452 1.546 3.452 3.453v2.318zM29 6.512c-.478-.47-1.045-.79-1.798-.79-2.414 0-2.704 3.28-4.416 4.364V-.847c0-1.716 1.39-3.107 3.107-3.107C27.61-3.954 29-2.564 29-.847v7.36z"/></defs><g id="Page-1" fill="none" fill-rule="evenodd"><g id="10.5″-iPad-Pro-Copy-6"><g id="Group-3"><g id="Livewire" fill-rule="nonzero"><path id="Combined-Shape" fill="#4E56A6" d="M67.92 42.907c-.847 0-1.546-.24-2.096-.723-.55-.482-.824-1.174-.824-2.076V12.265c0-.902.275-1.586.824-2.052.55-.467 1.25-.7 2.097-.7.85 0 1.556.233 2.12.7.566.466.85 1.15.85 2.052v27.843c0 .902-.284 1.594-.85 2.076-.564.482-1.27.723-2.12.723zm12.118 0c-.848 0-1.547-.24-2.096-.723-.55-.482-.825-1.174-.825-2.076V22.106c0-.902.275-1.586.825-2.053.55-.466 1.248-.7 2.096-.7.848 0 1.555.234 2.12.7.565.467.848 1.15.848 2.053v18.002c0 .902-.283 1.594-.848 2.076s-1.272.723-2.12.723zm0-27.704c-1.068 0-1.916-.288-2.544-.863-.628-.575-.942-1.33-.942-2.262 0-.933.314-1.68.942-2.238.628-.56 1.476-.84 2.544-.84 1.037 0 1.877.28 2.52.84.644.56.966 1.305.966 2.238s-.314 1.687-.942 2.262c-.628.575-1.476.863-2.544.863zm25.26 5.83c.253-.56.59-.98 1.014-1.26.424-.28.888-.42 1.39-.42.723 0 1.374.242 1.955.724.58.482.872 1.08.872 1.795 0 .374-.095.747-.284 1.12l-8.715 18.05c-.282.59-.683 1.04-1.2 1.352-.52.31-1.092.466-1.72.466-.597 0-1.17-.155-1.72-.466-.55-.31-.966-.762-1.248-1.353L86.88 22.993c-.158-.31-.237-.67-.237-1.073 0-.716.306-1.322.92-1.82.61-.497 1.31-.746 2.095-.746 1.13 0 1.963.544 2.497 1.632l6.596 14.412 6.55-14.365zm26.723 15.344c.535 0 .967.202 1.297.607.33.404.495.948.495 1.632 0 .964-.58 1.772-1.744 2.425-1.067.592-2.277 1.066-3.627 1.424-1.35.357-2.637.536-3.862.536-3.707 0-6.643-1.057-8.81-3.17-2.167-2.116-3.25-5.007-3.25-8.676 0-2.332.47-4.4 1.412-6.203.943-1.803 2.27-3.202 3.98-4.197 1.713-.995 3.652-1.492 5.82-1.492 2.073 0 3.878.45 5.417 1.353 1.54.902 2.733 2.177 3.58 3.825.85 1.648 1.273 3.59 1.273 5.83 0 1.336-.597 2.005-1.79 2.005h-13.898c.188 2.145.8 3.723 1.837 4.734 1.036 1.01 2.543 1.516 4.522 1.516 1.005 0 1.892-.125 2.662-.373.77-.25 1.64-.59 2.614-1.027.943-.497 1.634-.746 2.073-.746zm-8.15-13.012c-1.6 0-2.88.497-3.84 1.492-.957.995-1.53 2.426-1.718 4.29h10.647c-.064-1.896-.535-3.334-1.414-4.313-.88-.98-2.105-1.47-3.675-1.47z"/><path id="Combined-Shape-Copy" stroke="#4E56A6" d="M169.7 20.42c.222-.575.544-1.007.97-1.296.424-.288.888-.432 1.39-.432.725 0 1.377.248 1.96.745.58.496.872 1.113.872 1.85 0 .415-.078.784-.236 1.104l-7.786 18.592c-.252.61-.637 1.073-1.156 1.393-.52.32-1.093.48-1.722.48-.598 0-1.157-.16-1.676-.48-.52-.32-.904-.784-1.156-1.393l-5.615-13.74-5.427 13.74c-.252.61-.637 1.073-1.156 1.393-.52.32-1.094.48-1.723.48-.6 0-1.165-.16-1.7-.48-.534-.32-.928-.784-1.18-1.393l-7.738-18.59c-.158-.417-.236-.77-.236-1.058 0-.736.314-1.37.943-1.897.63-.53 1.32-.793 2.076-.793.535 0 1.022.144 1.463.432.44.29.77.72.99 1.297l5.568 14.652 5.71-14.507c.252-.61.613-1.065 1.085-1.37.472-.304.99-.456 1.558-.456.567 0 1.086.152 1.558.456.472.305.833.76 1.085 1.37l5.757 14.555 5.52-14.652zm12.28 22.484c-.85 0-1.55-.248-2.1-.745s-.826-1.21-.826-2.138V21.478c0-.928.276-1.633.826-2.113.55-.48 1.25-.72 2.1-.72.85 0 1.557.24 2.124.72.566.48.85 1.185.85 2.113v18.544c0 .928-.284 1.64-.85 2.137-.567.496-1.274.744-2.124.744zm0-28.536c-1.07 0-1.92-.296-2.548-.888-.63-.593-.944-1.37-.944-2.33s.315-1.73.944-2.306c.63-.577 1.48-.865 2.548-.865 1.038 0 1.88.287 2.525.864.645.576.967 1.345.967 2.306 0 .96-.314 1.737-.944 2.33-.63.592-1.478.888-2.548.888zm22.094 4.276c.818-.064 1.463.112 1.935.528.47.417.707 1.04.707 1.874 0 .865-.204 1.505-.613 1.922-.41.416-1.15.688-2.218.816l-1.416.144c-1.856.192-3.217.833-4.082 1.922-.865 1.09-1.298 2.45-1.298 4.083v10.09c0 .927-.283 1.64-.85 2.136-.565.496-1.273.744-2.123.744-.85 0-1.55-.248-2.1-.745s-.825-1.21-.825-2.138V21.43c0-.896.275-1.585.825-2.065.55-.48 1.235-.72 2.053-.72.818 0 1.48.23 1.982.696.504.465.755 1.13.755 1.994v1.922c.598-1.41 1.487-2.498 2.666-3.267 1.18-.77 2.494-1.202 3.94-1.298l.66-.048zm23.133 17.534c.535 0 .967.21 1.298.625.33.416.495.977.495 1.68 0 .994-.582 1.827-1.746 2.5-1.07.608-2.28 1.096-3.634 1.465-1.352.368-2.642.552-3.87.552-3.71 0-6.653-1.09-8.824-3.267-2.17-2.177-3.256-5.156-3.256-8.935 0-2.402.472-4.532 1.416-6.39.944-1.857 2.273-3.298 3.987-4.323 1.715-1.025 3.658-1.537 5.828-1.537 2.078 0 3.887.464 5.428 1.393 1.542.93 2.737 2.243 3.587 3.94.85 1.698 1.274 3.7 1.274 6.005 0 1.377-.6 2.066-1.794 2.066h-13.92c.187 2.21.8 3.836 1.84 4.877 1.037 1.04 2.547 1.56 4.53 1.56 1.006 0 1.895-.127 2.665-.383.772-.256 1.645-.61 2.62-1.057.944-.512 1.636-.77 2.077-.77zm-8.164-13.403c-1.604 0-2.886.513-3.846 1.538-.96 1.024-1.534 2.498-1.722 4.42h10.664c-.063-1.954-.535-3.436-1.416-4.444-.88-1.01-2.108-1.515-3.68-1.515z"/></g><g id="Jelly" style="transform:translateY(2.99911%)"><path id="Body-Copy-2" fill="#FB70A9" d="M45.76 35.247C44.946 36.48 44.326 38 42.667 38c-2.79 0-2.942-4.304-5.735-4.304C34.14 33.696 34.29 38 31.5 38c-2.792 0-2.943-4.304-5.736-4.304C22.97 33.696 23.12 38 20.33 38c-2.793 0-2.944-4.304-5.736-4.304C11.8 33.696 11.95 38 9.16 38c-.877 0-1.494-.425-2.013-1.008C5.15 33.516 4 29.442 4 25.087 4 12.337 13.85 2 26 2s22 10.336 22 23.087c0 3.646-.805 7.094-2.24 10.16z"/><g id="Legs" transform="translate(11 29)"><mask id="mask-2" fill="#fff"><use id="use10" xlink:href="#path-100"/></mask><use id="use13" fill="#4E56A6" xlink:href="#path-100"/><mask id="mask-4" fill="#fff"><use id="use15" xlink:href="#path-300"/></mask><use id="use18" fill="#000" fill-opacity="0.298513986" xlink:href="#path-300"/></g><path id="Body-Copy-4" fill="#FB70A9" d="M45.76 35.247C44.946 36.48 44.326 38 42.667 38c-2.79 0-2.942-4.304-5.735-4.304C34.14 33.696 34.29 38 31.5 38c-2.792 0-2.943-4.304-5.736-4.304C22.97 33.696 23.12 38 20.33 38c-2.793 0-2.944-4.304-5.736-4.304C11.8 33.696 11.95 38 9.16 38c-.877 0-1.494-.425-2.013-1.008C5.15 33.516 4 29.442 4 25.087 4 12.337 13.85 2 26 2s22 10.336 22 23.087c0 3.646-.805 7.094-2.24 10.16z"/><path id="path22" fill="#E24CA6" d="M41 37.54c5.765-8.576 5.914-18.09.447-28.54C45.5 13.152 48 18.85 48 25.136c0 3.632-.835 7.067-2.32 10.12C44.832 36.487 44.19 38 42.47 38c-.59 0-1.064-.177-1.472-.46z"/><g id="Eyes-Copy-2"><path id="Oval" fill="#FFF" d="M24.82 30.846c7.65 0 10.872-4.438 10.872-10.74C35.692 13.8 30.825 8 24.822 8c-6.006 0-10.873 5.802-10.873 12.105 0 6.303 3.22 10.74 10.87 10.74z"/><g id="Pupil" transform="translate(17.82 11.462)"><ellipse id="ellipse25" cx="4.07692308" cy="4.5" fill="#030776" rx="4.07692308" ry="4.5"/><ellipse id="ellipse27" cx="3.3974359" cy="3.46153846" fill="#FFF" rx="2.03846154" ry="2.07692308"/></g></g></g></g></g></g></svg>