<svg xmlns="http://www.w3.org/2000/svg" id="svg10" width="500pt" height="500pt" viewBox="0 0 500 500"><g id="#00e3bbff"><path id="path2" fill="#00e3bb" d="M118.41 36.59c87.79-.66 175.66-.27 263.48-.2 25.83 1.77 35.14 39.18 14.14 53.64-7.95 6.04-18.46 6.4-28.03 6.29-80.68-.13-161.37.1-242.04-.12-12.41.1-25.16-6.52-29.62-18.58-8.09-16.6 4.02-38.28 22.07-41.03z" opacity="1.00"/></g><g id="#000000ff" fill="#b3b3b3"><path id="path5" d="M249.85 143.84c7.22-8.72 19.04-8.05 28.96-5.4 28.29 5.41 55.36 18.52 76.22 38.51 8.39 8.26 21.16 5.15 31.5 8.66 14.23.92 25.33 15.2 23.9 29.14-1.34 15.17-5.36 30.07-6.74 45.18 10.82 47.52.73 99.84-28.99 138.81-26.83 35.59-68.86 61.68-113.92 63.87 12.41-19.86 14.33-44.65 2.58-65.3 30.17-7.74 58.78-27.33 70.95-57.11 14.55-31.46 11.07-70.19-8.96-98.51-15.82-23.6-43.39-37.84-71.44-39.8-20.37-11.52-22.58-43.69-4.06-58.05z" opacity="1.00"/><path id="path7" d="M89.09 285.83c4.98-74.56 67.89-142.58 143.1-148.47-11.79 19.88-13.55 45.03-1.53 65.23-32.11 9.14-61.71 32.18-72.14 65.12-20.95 52.57 14.26 119.21 70.91 128.27 17.8-.25 28 19.04 27.08 34.83-1.61 14.81-12.71 30.87-28.49 31.97-30.69-3.09-59.98-16.49-83.36-36.5-7.72-8.25-20.08-6.43-30.19-9.07-13.4-.18-27.25-8.62-29.93-22.36-1.54-19.83 6.08-38.96 6.49-58.71-1.36-16.74-5.59-33.57-1.94-50.31z" opacity="1.00"/></g></svg>