<?xml version="1.0" encoding="UTF-8" ?>
<!DOCTYPE svg PUBLIC "-//W3C//DTD SVG 1.1//EN" "http://www.w3.org/Graphics/SVG/1.1/DTD/svg11.dtd">
<svg width="500pt" height="500pt" viewBox="0 0 500 500" version="1.1" xmlns="http://www.w3.org/2000/svg">
<g id="#00e3bbff">
<path fill="#00e3bb" opacity="1.00" d=" M 118.41 36.59 C 206.20 35.93 294.07 36.32 381.89 36.39 C 407.72 38.16 417.03 75.57 396.03 90.03 C 388.08 96.07 377.57 96.43 368.00 96.32 C 287.32 96.19 206.63 96.42 125.96 96.20 C 113.55 96.30 100.80 89.68 96.34 77.62 C 88.25 61.02 100.36 39.34 118.41 36.59 Z" />
</g>
<g id="#000000ff">
<path fill="#000000" opacity="1.00" d=" M 249.85 143.84 C 257.07 135.12 268.89 135.79 278.81 138.44 C 307.10 143.85 334.17 156.96 355.03 176.95 C 363.42 185.21 376.19 182.10 386.53 185.61 C 400.76 186.53 411.86 200.81 410.43 214.75 C 409.09 229.92 405.07 244.82 403.69 259.93 C 414.51 307.45 404.42 359.77 374.70 398.74 C 347.87 434.33 305.84 460.42 260.78 462.61 C 273.19 442.75 275.11 417.96 263.36 397.31 C 293.53 389.57 322.14 369.98 334.31 340.20 C 348.86 308.74 345.38 270.01 325.35 241.69 C 309.53 218.09 281.96 203.85 253.91 201.89 C 233.54 190.37 231.33 158.20 249.85 143.84 Z" />
<path fill="#000000" opacity="1.00" d=" M 89.09 285.83 C 94.07 211.27 156.98 143.25 232.19 137.36 C 220.40 157.24 218.64 182.39 230.66 202.59 C 198.55 211.73 168.95 234.77 158.52 267.71 C 137.57 320.28 172.78 386.92 229.43 395.98 C 247.23 395.73 257.43 415.02 256.51 430.81 C 254.90 445.62 243.80 461.68 228.02 462.78 C 197.33 459.69 168.04 446.29 144.66 426.28 C 136.94 418.03 124.58 419.85 114.47 417.21 C 101.07 417.03 87.22 408.59 84.54 394.85 C 83.00 375.02 90.62 355.89 91.03 336.14 C 89.67 319.40 85.44 302.57 89.09 285.83 Z" />
</g>
</svg>
