<svg xmlns="http://www.w3.org/2000/svg" id="svg10" x="0px" y="0px" viewBox="0 0 417 126"><path id="path6" fill="#fff" d="M21.4 125.4H.4l18.7-96.2h40.3c12.1 0 21 3.2 26.5 9.5 5.6 6.4 7.2 15.2 5 26.7-.9 4.7-2.5 9-4.6 12.9-2.2 3.9-5 7.5-8.5 10.7-4.2 3.9-8.8 6.7-13.9 8.4-5.1 1.7-11.6 2.5-19.6 2.5h-18zm46-76.6c-2.7-2.9-8-4.4-15.9-4.4H37.1l-7.8 40.3H42c8.4 0 14.7-1.6 18.9-4.8 4.1-3.2 6.9-8.5 8.4-15.9 1.4-7.2.7-12.2-1.9-15.2z"/><path id="path8" fill="#fff" d="M106.3 3.6h20.8l-5 25.6h18.5c11.7 0 19.7 2 24.1 6.1 4.4 4.1 5.8 10.7 4 19.8L160 99.9h-21.1l8.3-42.6c.9-4.8.6-8.1-1-9.9-1.6-1.8-5.1-2.6-10.4-2.6h-16.6l-10.7 55.1H87.6z"/><path id="path10" fill="#fff" d="M184.9 125.4h-21l18.7-96.2H223c12.1 0 21 3.2 26.5 9.5 5.6 6.4 7.2 15.2 5 26.7-.9 4.7-2.5 9-4.6 12.9-2.2 3.9-5 7.5-8.5 10.7-4.2 3.9-8.8 6.7-13.9 8.4-5.1 1.7-11.6 2.5-19.6 2.5h-18zM231 48.8c-2.7-2.9-8-4.4-15.9-4.4h-14.4l-7.8 40.3h12.7c8.4 0 14.7-1.6 18.9-4.8 4.1-3.2 6.9-8.5 8.4-15.9 1.3-7.2.7-12.2-1.9-15.2z"/><path id="path12" fill="#fff" d="M317.4 48c-5.7-13.6-10.5-25.4-5.8-33.6 1.8-2.5 3.8-3.8 6-3.8 4.5 0 8.6 4.9 8.6 4.9l5.7 6.9-3.6-8.2C328.1 13.9 322 0 311 0c-3.8 0-7.8 1.7-11.7 5.1l-.1.1c-9.5 11-.2 31.8 8.1 50.1l6.1 14.2s.6.5 0 0c2.8 7.3 5.6 16 3.9 22.4-2.6 10-11.5 16.8-11.6 16.9l-5.7 4.4 6.9-2.2c.7-.2 16-5.2 19.7-18.5 2.3-10.9-.6-21.8-3.5-30.2.4-.3-.4.3 0 0l-5.3-13.7"/><path id="path14" fill="#8892bf" d="M334.3 9.4l-7.1-7.8 5.1 9.3c.1.1 6.3 11.7-1.6 25.2-2.9 4.2-7.4 8.4-13.1 12.6l-10.4 6.7c-.1-.2-.1-.1 0 0l-.4.3h.1-.1c-11.5 6.6-22.2 10.6-22.4 10.7-15.9 7.1-25.9 18.1-27.3 30.3-1.1 9.2 3.2 18.2 11.6 24.5l.1.1c5.3 3.2 11 4.8 17 4.8 15.7 0 28-10.9 28.5-11.4l7.7-6.9-9.1 4.8c-.1 0-7.7 4-15.6 4-7.1 0-12.1-3.1-15.1-9.4-3.8-13.4 9.5-22.6 24.8-33.2 2-1.4 4.1-2.9 6.2-4.3l.1-.1 9.1-6.8c.1-.2.4-.4.4-.4 7.5-6.2 17.4-15.9 19.7-29.5 1.9-12.3-7.8-23-8.2-23.5z"/><path id="path16" fill="#fff" d="M347.4 81.3h19.9l-6.5 22.8h-19.9z"/><path id="path18" fill="#fff" d="M390.9 47L379 50.5V33.9l20.5-6.8h15l-15.2 77.1h-19.4z"/></svg>